<?xml version="1.0" encoding="UTF-8"?>
<!-- This file is generated by npm run build:icons -->
<svg xmlns="http://www.w3.org/2000/svg" xmlns:xlink="http://www.w3.org/1999/xlink" width="0" height="0">
<defs>
<symbol viewBox="0 0 24 24" fill="none" stroke="currentColor" stroke-width="2" stroke-linecap="round" stroke-linejoin="round" id="symbiosis-calendar"><path d="M8 2v4"></path><path d="M16 2v4"></path><rect width="18" height="18" x="3" y="4" rx="2"></rect><path d="M3 10h18"></path><path d="M8 14h.01"></path><path d="M12 14h.01"></path><path d="M16 14h.01"></path><path d="M8 18h.01"></path><path d="M12 18h.01"></path><path d="M16 18h.01"></path></symbol>
<symbol viewBox="0 0 24 24" stroke-width="2" stroke="currentColor" fill="none" stroke-linecap="round" stroke-linejoin="round" id="symbiosis-check">
   <path stroke="none" d="M0 0h24v24H0z" fill="none"></path>
   <path d="M5 12l5 5l10 -10"></path>
</symbol>
<symbol viewBox="0 0 24 24" fill="none" stroke="currentColor" stroke-width="2" stroke-linecap="round" stroke-linejoin="round" id="symbiosis-chevron-down"><path stroke="none" d="M0 0h24v24H0z" fill="none"></path><path d="M6 9l6 6l6 -6" ></path></symbol>
<symbol viewBox="0 0 20 20" id="symbiosis-chevron-left"><path d="M12 16a.997.997 0 01-.707-.293l-5-5a.999.999 0 010-1.414l5-5a.999.999 0 111.414 1.414L8.414 10l4.293 4.293A.999.999 0 0112 16z" fill="currentColor"></path></symbol>
<symbol viewBox="0 0 20 20" id="symbiosis-chevron-right"><path d="M8 16a.999.999 0 01-.707-1.707L11.586 10 7.293 5.707a.999.999 0 111.414-1.414l5 5a.999.999 0 010 1.414l-5 5A.997.997 0 018 16z" fill="currentColor"></path></symbol>
<symbol viewBox="0 0 20 20" id="symbiosis-chevron-up"><path d="M15 13a.997.997 0 01-.707-.293L10 8.414l-4.293 4.293a.999.999 0 11-1.414-1.414l5-5a.999.999 0 011.414 0l5 5A.999.999 0 0115 13z" fill="currentColor"></path></symbol>
<symbol viewBox="0 0 24 24" fill="none" stroke="currentColor" stroke-width="1" stroke-linecap="round" stroke-linejoin="miter" id="symbiosis-dots"><line x1="5.99" y1="12" x2="6" y2="12" stroke-linecap="round" stroke-width="2"></line><line x1="11.99" y1="12" x2="12" y2="12" stroke-linecap="round" stroke-width="2"></line><line x1="17.99" y1="12" x2="18" y2="12" stroke-linecap="round" stroke-width="2"></line></symbol>
<symbol viewBox="0 0 24 24" stroke-width="2" stroke="currentColor" fill="none" stroke-linecap="round" stroke-linejoin="round" id="symbiosis-exclamation-circle">
   <path stroke="none" d="M0 0h24v24H0z" fill="none"></path>
   <path d="M12 12m-9 0a9 9 0 1 0 18 0a9 9 0 1 0 -18 0"></path>
   <path d="M12 9v4"></path>
   <path d="M12 16v.01"></path>
</symbol>
<symbol viewBox="0 0 20 20" id="symbiosis-kebab">
  <path d="M10 6c-1.103 0-2-.897-2-2s.897-2 2-2 2 .897 2 2-.897 2-2 2zm0 2c1.103 0 2 .897 2 2s-.897 2-2 2-2-.897-2-2 .897-2 2-2zm0 6c1.103 0 2 .897 2 2s-.897 2-2 2-2-.897-2-2 .897-2 2-2z" fill="currentColor"></path>
</symbol>
<symbol viewBox="0 0 24 24" fill="none" stroke="currentColor" stroke-width="2" stroke-linecap="round" stroke-linejoin="round" id="symbiosis-loader">
 <path stroke="none" d="M0 0h24v24H0z" fill="none"></path><path d="M12 3a9 9 0 1 0 9 9" ></path>
</symbol>
<symbol viewBox="0 0 24 24" fill="none" id="symbiosis-minus">
  <path     fill-rule="evenodd"
    clip-rule="evenodd"
    d="M4 12C4 11.4477 4.44772 11 5 11H19C19.5523 11 20 11.4477 20 12C20 12.5523 19.5523 13 19 13H5C4.44772 13 4 12.5523 4 12Z"
    fill="currentColor"
  ></path>
</symbol>
<symbol viewBox="0 0 20 20" id="symbiosis-plus">
  <path d="M17 9h-6V3a1 1 0 10-2 0v6H3a1 1 0 100 2h6v6a1 1 0 102 0v-6h6a1 1 0 100-2z" fill="currentColor"></path>
</symbol>
<symbol viewBox="0 0 24 24" fill="none" stroke="currentColor" stroke-width="2" stroke-linecap="round" stroke-linejoin="round" id="symbiosis-search">
	<circle cx="11" cy="11" r="8" ></circle>
	<path d="m21 21-4.3-4.3" ></path>
</symbol>
<symbol viewBox="0 0 20 20" id="symbiosis-select">
  <path fill="currentColor" d="M7.676 9h4.648c.563 0 .879-.603.53-1.014L10.531 5.24a.708.708 0 0 0-1.062 0L7.145 7.986C6.798 8.397 7.113 9 7.676 9ZM12.324 11H7.676c-.563 0-.878.603-.53 1.014l2.323 2.746c.27.32.792.32 1.062 0l2.323-2.746c.349-.411.033-1.014-.53-1.014Z"></path>
</symbol>
<symbol viewBox="0 0 24 24" stroke-width="2" stroke="currentColor" fill="none" stroke-linecap="round" stroke-linejoin="round" id="symbiosis-sort-rows-asc">
   <path stroke="none" d="M0 0h24v24H0z" fill="none"></path>
   <path d="M4 6l7 0"></path>
   <path d="M4 12l7 0"></path>
   <path d="M4 18l9 0"></path>
   <path d="M15 9l3 -3l3 3"></path>
   <path d="M18 6l0 12"></path>
</symbol>
<symbol viewBox="0 0 24 24" stroke-width="2" stroke="currentColor" fill="none" stroke-linecap="round" stroke-linejoin="round" id="symbiosis-sort-rows-desc">
   <path stroke="none" d="M0 0h24v24H0z" fill="none"></path>
   <path d="M4 6l9 0"></path>
   <path d="M4 12l7 0"></path>
   <path d="M4 18l7 0"></path>
   <path d="M15 15l3 3l3 -3"></path>
   <path d="M18 6l0 12"></path>
</symbol>
<symbol viewBox="0 0 20 20" fill="currentColor" id="symbiosis-toast-destructive">
 <path fill-rule="evenodd" d="M18 10a8 8 0 11-16 0 8 8 0 0116 0zm-8-5a.75.75 0 01.75.75v4.5a.75.75 0 01-1.5 0v-4.5A.75.75 0 0110 5zm0 10a1 1 0 100-2 1 1 0 000 2z" clip-rule="evenodd"></path>
</symbol>
<symbol viewBox="0 0 20 20" fill="currentColor" id="symbiosis-toast-info">
 <path fill-rule="evenodd" d="M18 10a8 8 0 11-16 0 8 8 0 0116 0zm-7-4a1 1 0 11-2 0 1 1 0 012 0zM9 9a.75.75 0 000 1.5h.253a.25.25 0 01.244.304l-.459 2.066A1.75 1.75 0 0010.747 15H11a.75.75 0 000-1.5h-.253a.25.25 0 01-.244-.304l.459-2.066A1.75 1.75 0 009.253 9H9z" clip-rule="evenodd"></path>
</symbol>
<symbol viewBox="0 0 20 20" fill="currentColor" id="symbiosis-toast-success">
  <path fill-rule="evenodd" d="M10 18a8 8 0 100-16 8 8 0 000 16zm3.857-9.809a.75.75 0 00-1.214-.882l-3.483 4.79-1.88-1.88a.75.75 0 10-1.06 1.061l2.5 2.5a.75.75 0 001.137-.089l4-5.5z" clip-rule="evenodd"></path>
</symbol>
<symbol viewBox="0 0 24 24" fill="currentColor" id="symbiosis-toast-warning">
<path fill-rule="evenodd" d="M9.401 3.003c1.155-2 4.043-2 5.197 0l7.355 12.748c1.154 2-.29 4.5-2.599 4.5H4.645c-2.309 0-3.752-2.5-2.598-4.5L9.4 3.003zM12 8.25a.75.75 0 01.75.75v3.75a.75.75 0 01-1.5 0V9a.75.75 0 01.75-.75zm0 8.25a.75.75 0 100-1.5.75.75 0 000 1.5z" clip-rule="evenodd"></path>
</symbol>
<symbol viewBox="0 0 24 24" fill="none" stroke="currentColor" stroke-width="2" stroke-linecap="round" stroke-linejoin="round" id="symbiosis-x">
	<path d="M18 6 6 18" ></path>
	<path d="m6 6 12 12" ></path>
</symbol>
</defs>
</svg>
